<svg xmlns="http://www.w3.org/2000/svg" xmlns:xlink="http://www.w3.org/1999/xlink" width="640" height="640" fill="none" viewBox="0 0 640 640"><path fill="#65ba7e" d="M52 67L206 57V225L52 215V67Z"/><path fill="#65ba7e" d="M236 67L376 57V225L236 215V67Z"/><path fill="#1A1A1A" d="M52 251L164 241V409L52 399V251Z"/><path fill="#65ba7e" d="M236 251L331 241V409L236 399V251Z"/><path fill="#65ba7e" d="M420 251L496 241V409L420 399V251Z"/><path fill="#65ba7e" d="M52 435L109 425V593L52 583V435Z"/><path fill="#F5F5F5" d="M236 435L275 425V593L236 583V435Z"/><path fill="#65ba7e" d="M420 435L442 425V593L420 583V435Z"/><path fill="#1A1A1A" d="M420 67L548 57V225L420 215V67Z"/><path fill="#39a95b" d="M206 57L220 67V215L206 225V57Z"/><path fill="#39a95b" d="M376 57L404 67V215L376 225V57Z"/><path fill="#000" d="M164 241L220 251V399L164 409V241Z"/><path fill="#39a95b" d="M331 241L404 251V399L331 409V241Z"/><path fill="#39a95b" d="M496 241L588 251V399L496 409V241Z"/><path fill="#39a95b" d="M109 425L220 435V583L109 593V425Z"/><path fill="#DDD" d="M275 425L404 435V583L275 593V425Z"/><path fill="#39a95b" d="M442 425L588 435V583L442 593V425Z"/><path fill="#000" d="M548 57L588 67V215L548 225V57Z"/></svg>